<mxfile host="Electron" modified="2023-09-24T21:51:59.229Z" agent="Mozilla/5.0 (Windows NT 10.0; Win64; x64) AppleWebKit/537.36 (KHTML, like Gecko) draw.io/21.6.8 Chrome/114.0.5735.289 Electron/25.5.0 Safari/537.36" etag="W-gdOhkCZo1RzHIPUg9F" version="21.6.8" type="device">
  <diagram id="ZiBMeLNdFPXtyD2y2Tne" name="Страница 2">
    <mxGraphModel dx="1434" dy="836" grid="1" gridSize="10" guides="1" tooltips="1" connect="1" arrows="1" fold="1" page="1" pageScale="1" pageWidth="827" pageHeight="1169" math="0" shadow="0">
      <root>
        <mxCell id="Kzh3hM-JKv6-tXHrMC2i-0" />
        <mxCell id="Kzh3hM-JKv6-tXHrMC2i-1" parent="Kzh3hM-JKv6-tXHrMC2i-0" />
        <mxCell id="Yqaib7xicE3CKZIW9fZN-38" style="edgeStyle=orthogonalEdgeStyle;rounded=0;orthogonalLoop=1;jettySize=auto;html=1;" parent="Kzh3hM-JKv6-tXHrMC2i-1" source="Kzh3hM-JKv6-tXHrMC2i-2" target="Kzh3hM-JKv6-tXHrMC2i-3" edge="1">
          <mxGeometry relative="1" as="geometry" />
        </mxCell>
        <mxCell id="Kzh3hM-JKv6-tXHrMC2i-2" value="Начало" style="ellipse;whiteSpace=wrap;html=1;" parent="Kzh3hM-JKv6-tXHrMC2i-1" vertex="1">
          <mxGeometry x="200" y="10" width="120" height="80" as="geometry" />
        </mxCell>
        <mxCell id="Yqaib7xicE3CKZIW9fZN-56" style="edgeStyle=none;rounded=0;orthogonalLoop=1;jettySize=auto;html=1;entryX=0.5;entryY=0;entryDx=0;entryDy=0;" parent="Kzh3hM-JKv6-tXHrMC2i-1" source="Kzh3hM-JKv6-tXHrMC2i-3" target="Yqaib7xicE3CKZIW9fZN-55" edge="1">
          <mxGeometry relative="1" as="geometry" />
        </mxCell>
        <mxCell id="Kzh3hM-JKv6-tXHrMC2i-3" value="Ввод a" style="shape=parallelogram;perimeter=parallelogramPerimeter;whiteSpace=wrap;html=1;fixedSize=1;" parent="Kzh3hM-JKv6-tXHrMC2i-1" vertex="1">
          <mxGeometry x="200" y="120" width="120" height="60" as="geometry" />
        </mxCell>
        <mxCell id="TQeBkKrvsa03Zjg8h2H--1" style="edgeStyle=orthogonalEdgeStyle;rounded=0;orthogonalLoop=1;jettySize=auto;html=1;" parent="Kzh3hM-JKv6-tXHrMC2i-1" source="TQeBkKrvsa03Zjg8h2H--0" edge="1">
          <mxGeometry relative="1" as="geometry">
            <mxPoint x="374" y="1123" as="targetPoint" />
          </mxGeometry>
        </mxCell>
        <mxCell id="TQeBkKrvsa03Zjg8h2H--0" value="a" style="rhombus;whiteSpace=wrap;html=1;" parent="Kzh3hM-JKv6-tXHrMC2i-1" vertex="1">
          <mxGeometry x="334" y="300" width="80" height="80" as="geometry" />
        </mxCell>
        <mxCell id="TQeBkKrvsa03Zjg8h2H--2" value="Вывод ноль" style="shape=parallelogram;perimeter=parallelogramPerimeter;whiteSpace=wrap;html=1;fixedSize=1;" parent="Kzh3hM-JKv6-tXHrMC2i-1" vertex="1">
          <mxGeometry x="440" y="380" width="120" height="40" as="geometry" />
        </mxCell>
        <mxCell id="Yqaib7xicE3CKZIW9fZN-33" style="edgeStyle=orthogonalEdgeStyle;rounded=0;orthogonalLoop=1;jettySize=auto;html=1;" parent="Kzh3hM-JKv6-tXHrMC2i-1" source="Yqaib7xicE3CKZIW9fZN-0" edge="1">
          <mxGeometry relative="1" as="geometry">
            <mxPoint x="610" y="460" as="targetPoint" />
          </mxGeometry>
        </mxCell>
        <mxCell id="Yqaib7xicE3CKZIW9fZN-0" value="&lt;span&gt;Вывод один&lt;/span&gt;" style="shape=parallelogram;perimeter=parallelogramPerimeter;whiteSpace=wrap;html=1;fixedSize=1;" parent="Kzh3hM-JKv6-tXHrMC2i-1" vertex="1">
          <mxGeometry x="440" y="440" width="120" height="40" as="geometry" />
        </mxCell>
        <mxCell id="Yqaib7xicE3CKZIW9fZN-32" style="edgeStyle=orthogonalEdgeStyle;rounded=0;orthogonalLoop=1;jettySize=auto;html=1;" parent="Kzh3hM-JKv6-tXHrMC2i-1" source="Yqaib7xicE3CKZIW9fZN-1" edge="1">
          <mxGeometry relative="1" as="geometry">
            <mxPoint x="610" y="520" as="targetPoint" />
          </mxGeometry>
        </mxCell>
        <mxCell id="Yqaib7xicE3CKZIW9fZN-1" value="&lt;span&gt;Вывод два&lt;/span&gt;" style="shape=parallelogram;perimeter=parallelogramPerimeter;whiteSpace=wrap;html=1;fixedSize=1;" parent="Kzh3hM-JKv6-tXHrMC2i-1" vertex="1">
          <mxGeometry x="440" y="500" width="120" height="40" as="geometry" />
        </mxCell>
        <mxCell id="Yqaib7xicE3CKZIW9fZN-31" style="edgeStyle=orthogonalEdgeStyle;rounded=0;orthogonalLoop=1;jettySize=auto;html=1;" parent="Kzh3hM-JKv6-tXHrMC2i-1" source="Yqaib7xicE3CKZIW9fZN-2" edge="1">
          <mxGeometry relative="1" as="geometry">
            <mxPoint x="610" y="580" as="targetPoint" />
          </mxGeometry>
        </mxCell>
        <mxCell id="Yqaib7xicE3CKZIW9fZN-2" value="&lt;span&gt;Вывод три&lt;/span&gt;" style="shape=parallelogram;perimeter=parallelogramPerimeter;whiteSpace=wrap;html=1;fixedSize=1;" parent="Kzh3hM-JKv6-tXHrMC2i-1" vertex="1">
          <mxGeometry x="440" y="560" width="120" height="40" as="geometry" />
        </mxCell>
        <mxCell id="Yqaib7xicE3CKZIW9fZN-30" style="edgeStyle=orthogonalEdgeStyle;rounded=0;orthogonalLoop=1;jettySize=auto;html=1;" parent="Kzh3hM-JKv6-tXHrMC2i-1" source="Yqaib7xicE3CKZIW9fZN-3" edge="1">
          <mxGeometry relative="1" as="geometry">
            <mxPoint x="610" y="640" as="targetPoint" />
          </mxGeometry>
        </mxCell>
        <mxCell id="Yqaib7xicE3CKZIW9fZN-3" value="&lt;span&gt;Вывод четыре&lt;/span&gt;" style="shape=parallelogram;perimeter=parallelogramPerimeter;whiteSpace=wrap;html=1;fixedSize=1;" parent="Kzh3hM-JKv6-tXHrMC2i-1" vertex="1">
          <mxGeometry x="440" y="620" width="120" height="40" as="geometry" />
        </mxCell>
        <mxCell id="Yqaib7xicE3CKZIW9fZN-29" style="edgeStyle=orthogonalEdgeStyle;rounded=0;orthogonalLoop=1;jettySize=auto;html=1;" parent="Kzh3hM-JKv6-tXHrMC2i-1" source="Yqaib7xicE3CKZIW9fZN-5" edge="1">
          <mxGeometry relative="1" as="geometry">
            <mxPoint x="610" y="700" as="targetPoint" />
          </mxGeometry>
        </mxCell>
        <mxCell id="Yqaib7xicE3CKZIW9fZN-5" value="&lt;span&gt;Вывод пять&lt;/span&gt;" style="shape=parallelogram;perimeter=parallelogramPerimeter;whiteSpace=wrap;html=1;fixedSize=1;" parent="Kzh3hM-JKv6-tXHrMC2i-1" vertex="1">
          <mxGeometry x="440" y="680" width="120" height="40" as="geometry" />
        </mxCell>
        <mxCell id="Yqaib7xicE3CKZIW9fZN-28" style="edgeStyle=orthogonalEdgeStyle;rounded=0;orthogonalLoop=1;jettySize=auto;html=1;" parent="Kzh3hM-JKv6-tXHrMC2i-1" source="Yqaib7xicE3CKZIW9fZN-6" edge="1">
          <mxGeometry relative="1" as="geometry">
            <mxPoint x="610" y="760" as="targetPoint" />
          </mxGeometry>
        </mxCell>
        <mxCell id="Yqaib7xicE3CKZIW9fZN-6" value="&lt;span&gt;Вывод шесть&lt;/span&gt;" style="shape=parallelogram;perimeter=parallelogramPerimeter;whiteSpace=wrap;html=1;fixedSize=1;" parent="Kzh3hM-JKv6-tXHrMC2i-1" vertex="1">
          <mxGeometry x="440" y="740" width="120" height="40" as="geometry" />
        </mxCell>
        <mxCell id="Yqaib7xicE3CKZIW9fZN-27" style="edgeStyle=orthogonalEdgeStyle;rounded=0;orthogonalLoop=1;jettySize=auto;html=1;" parent="Kzh3hM-JKv6-tXHrMC2i-1" source="Yqaib7xicE3CKZIW9fZN-7" edge="1">
          <mxGeometry relative="1" as="geometry">
            <mxPoint x="610" y="820" as="targetPoint" />
          </mxGeometry>
        </mxCell>
        <mxCell id="Yqaib7xicE3CKZIW9fZN-7" value="Вывод семь" style="shape=parallelogram;perimeter=parallelogramPerimeter;whiteSpace=wrap;html=1;fixedSize=1;" parent="Kzh3hM-JKv6-tXHrMC2i-1" vertex="1">
          <mxGeometry x="440" y="800" width="120" height="40" as="geometry" />
        </mxCell>
        <mxCell id="Yqaib7xicE3CKZIW9fZN-26" style="edgeStyle=orthogonalEdgeStyle;rounded=0;orthogonalLoop=1;jettySize=auto;html=1;" parent="Kzh3hM-JKv6-tXHrMC2i-1" source="Yqaib7xicE3CKZIW9fZN-8" edge="1">
          <mxGeometry relative="1" as="geometry">
            <mxPoint x="610" y="880" as="targetPoint" />
          </mxGeometry>
        </mxCell>
        <mxCell id="Yqaib7xicE3CKZIW9fZN-8" value="Вывод восемь" style="shape=parallelogram;perimeter=parallelogramPerimeter;whiteSpace=wrap;html=1;fixedSize=1;" parent="Kzh3hM-JKv6-tXHrMC2i-1" vertex="1">
          <mxGeometry x="440" y="860" width="120" height="40" as="geometry" />
        </mxCell>
        <mxCell id="Yqaib7xicE3CKZIW9fZN-25" style="edgeStyle=orthogonalEdgeStyle;rounded=0;orthogonalLoop=1;jettySize=auto;html=1;" parent="Kzh3hM-JKv6-tXHrMC2i-1" source="Yqaib7xicE3CKZIW9fZN-9" edge="1">
          <mxGeometry relative="1" as="geometry">
            <mxPoint x="610" y="940" as="targetPoint" />
          </mxGeometry>
        </mxCell>
        <mxCell id="Yqaib7xicE3CKZIW9fZN-9" value="&lt;span&gt;Вывод девять&lt;/span&gt;" style="shape=parallelogram;perimeter=parallelogramPerimeter;whiteSpace=wrap;html=1;fixedSize=1;" parent="Kzh3hM-JKv6-tXHrMC2i-1" vertex="1">
          <mxGeometry x="440" y="920" width="120" height="40" as="geometry" />
        </mxCell>
        <mxCell id="Yqaib7xicE3CKZIW9fZN-11" value="" style="endArrow=classic;html=1;entryX=0;entryY=0.5;entryDx=0;entryDy=0;" parent="Kzh3hM-JKv6-tXHrMC2i-1" target="TQeBkKrvsa03Zjg8h2H--2" edge="1">
          <mxGeometry width="50" height="50" relative="1" as="geometry">
            <mxPoint x="370" y="400" as="sourcePoint" />
            <mxPoint x="420" y="370" as="targetPoint" />
            <Array as="points">
              <mxPoint x="410" y="400" />
            </Array>
          </mxGeometry>
        </mxCell>
        <mxCell id="Yqaib7xicE3CKZIW9fZN-12" value="" style="endArrow=classic;html=1;" parent="Kzh3hM-JKv6-tXHrMC2i-1" source="TQeBkKrvsa03Zjg8h2H--2" edge="1">
          <mxGeometry width="50" height="50" relative="1" as="geometry">
            <mxPoint x="560" y="450" as="sourcePoint" />
            <mxPoint x="370" y="1090" as="targetPoint" />
            <Array as="points">
              <mxPoint x="610" y="400" />
              <mxPoint x="610" y="1090" />
            </Array>
          </mxGeometry>
        </mxCell>
        <mxCell id="Yqaib7xicE3CKZIW9fZN-14" value="" style="endArrow=classic;html=1;entryX=0;entryY=0.5;entryDx=0;entryDy=0;" parent="Kzh3hM-JKv6-tXHrMC2i-1" edge="1">
          <mxGeometry width="50" height="50" relative="1" as="geometry">
            <mxPoint x="374" y="459.5" as="sourcePoint" />
            <mxPoint x="454" y="459.5" as="targetPoint" />
          </mxGeometry>
        </mxCell>
        <mxCell id="Yqaib7xicE3CKZIW9fZN-15" value="" style="endArrow=classic;html=1;entryX=0;entryY=0.5;entryDx=0;entryDy=0;" parent="Kzh3hM-JKv6-tXHrMC2i-1" edge="1">
          <mxGeometry width="50" height="50" relative="1" as="geometry">
            <mxPoint x="374" y="519.5" as="sourcePoint" />
            <mxPoint x="454" y="519.5" as="targetPoint" />
          </mxGeometry>
        </mxCell>
        <mxCell id="Yqaib7xicE3CKZIW9fZN-16" value="" style="endArrow=classic;html=1;entryX=0;entryY=0.5;entryDx=0;entryDy=0;" parent="Kzh3hM-JKv6-tXHrMC2i-1" edge="1">
          <mxGeometry width="50" height="50" relative="1" as="geometry">
            <mxPoint x="374" y="579.5" as="sourcePoint" />
            <mxPoint x="454" y="579.5" as="targetPoint" />
          </mxGeometry>
        </mxCell>
        <mxCell id="Yqaib7xicE3CKZIW9fZN-17" value="" style="endArrow=classic;html=1;entryX=0;entryY=0.5;entryDx=0;entryDy=0;" parent="Kzh3hM-JKv6-tXHrMC2i-1" edge="1">
          <mxGeometry width="50" height="50" relative="1" as="geometry">
            <mxPoint x="374" y="639.5" as="sourcePoint" />
            <mxPoint x="454" y="639.5" as="targetPoint" />
          </mxGeometry>
        </mxCell>
        <mxCell id="Yqaib7xicE3CKZIW9fZN-18" value="" style="endArrow=classic;html=1;entryX=0;entryY=0.5;entryDx=0;entryDy=0;" parent="Kzh3hM-JKv6-tXHrMC2i-1" edge="1">
          <mxGeometry width="50" height="50" relative="1" as="geometry">
            <mxPoint x="374" y="699.5" as="sourcePoint" />
            <mxPoint x="454" y="699.5" as="targetPoint" />
          </mxGeometry>
        </mxCell>
        <mxCell id="Yqaib7xicE3CKZIW9fZN-19" value="" style="endArrow=classic;html=1;entryX=0;entryY=0.5;entryDx=0;entryDy=0;" parent="Kzh3hM-JKv6-tXHrMC2i-1" edge="1">
          <mxGeometry width="50" height="50" relative="1" as="geometry">
            <mxPoint x="374" y="759.5" as="sourcePoint" />
            <mxPoint x="454" y="759.5" as="targetPoint" />
          </mxGeometry>
        </mxCell>
        <mxCell id="Yqaib7xicE3CKZIW9fZN-20" value="" style="endArrow=classic;html=1;entryX=0;entryY=0.5;entryDx=0;entryDy=0;" parent="Kzh3hM-JKv6-tXHrMC2i-1" edge="1">
          <mxGeometry width="50" height="50" relative="1" as="geometry">
            <mxPoint x="374" y="819.5" as="sourcePoint" />
            <mxPoint x="454" y="819.5" as="targetPoint" />
          </mxGeometry>
        </mxCell>
        <mxCell id="Yqaib7xicE3CKZIW9fZN-21" value="" style="endArrow=classic;html=1;entryX=0;entryY=0.5;entryDx=0;entryDy=0;" parent="Kzh3hM-JKv6-tXHrMC2i-1" edge="1">
          <mxGeometry width="50" height="50" relative="1" as="geometry">
            <mxPoint x="374" y="879.5" as="sourcePoint" />
            <mxPoint x="454" y="879.5" as="targetPoint" />
          </mxGeometry>
        </mxCell>
        <mxCell id="Yqaib7xicE3CKZIW9fZN-22" value="" style="endArrow=classic;html=1;entryX=0;entryY=0.5;entryDx=0;entryDy=0;" parent="Kzh3hM-JKv6-tXHrMC2i-1" edge="1">
          <mxGeometry width="50" height="50" relative="1" as="geometry">
            <mxPoint x="374" y="939.5" as="sourcePoint" />
            <mxPoint x="454" y="939.5" as="targetPoint" />
          </mxGeometry>
        </mxCell>
        <mxCell id="Yqaib7xicE3CKZIW9fZN-41" value="a:=0" style="text;html=1;strokeColor=none;fillColor=none;align=center;verticalAlign=middle;whiteSpace=wrap;rounded=0;" parent="Kzh3hM-JKv6-tXHrMC2i-1" vertex="1">
          <mxGeometry x="394" y="380" width="40" height="20" as="geometry" />
        </mxCell>
        <mxCell id="Yqaib7xicE3CKZIW9fZN-42" value="a:=1" style="text;html=1;strokeColor=none;fillColor=none;align=center;verticalAlign=middle;whiteSpace=wrap;rounded=0;" parent="Kzh3hM-JKv6-tXHrMC2i-1" vertex="1">
          <mxGeometry x="394" y="440" width="40" height="20" as="geometry" />
        </mxCell>
        <mxCell id="Yqaib7xicE3CKZIW9fZN-43" value="a:=2" style="text;html=1;strokeColor=none;fillColor=none;align=center;verticalAlign=middle;whiteSpace=wrap;rounded=0;" parent="Kzh3hM-JKv6-tXHrMC2i-1" vertex="1">
          <mxGeometry x="394" y="500" width="40" height="20" as="geometry" />
        </mxCell>
        <mxCell id="Yqaib7xicE3CKZIW9fZN-44" value="a:=3" style="text;html=1;strokeColor=none;fillColor=none;align=center;verticalAlign=middle;whiteSpace=wrap;rounded=0;" parent="Kzh3hM-JKv6-tXHrMC2i-1" vertex="1">
          <mxGeometry x="394" y="560" width="40" height="20" as="geometry" />
        </mxCell>
        <mxCell id="Yqaib7xicE3CKZIW9fZN-45" value="a:=4" style="text;html=1;strokeColor=none;fillColor=none;align=center;verticalAlign=middle;whiteSpace=wrap;rounded=0;" parent="Kzh3hM-JKv6-tXHrMC2i-1" vertex="1">
          <mxGeometry x="394" y="620" width="40" height="20" as="geometry" />
        </mxCell>
        <mxCell id="Yqaib7xicE3CKZIW9fZN-46" value="a:=5" style="text;html=1;strokeColor=none;fillColor=none;align=center;verticalAlign=middle;whiteSpace=wrap;rounded=0;" parent="Kzh3hM-JKv6-tXHrMC2i-1" vertex="1">
          <mxGeometry x="394" y="680" width="40" height="20" as="geometry" />
        </mxCell>
        <mxCell id="Yqaib7xicE3CKZIW9fZN-47" value="&lt;span&gt;a:=6&lt;/span&gt;" style="text;html=1;strokeColor=none;fillColor=none;align=center;verticalAlign=middle;whiteSpace=wrap;rounded=0;" parent="Kzh3hM-JKv6-tXHrMC2i-1" vertex="1">
          <mxGeometry x="394" y="740" width="40" height="20" as="geometry" />
        </mxCell>
        <mxCell id="Yqaib7xicE3CKZIW9fZN-48" value="&lt;span&gt;a:=7&lt;/span&gt;" style="text;html=1;strokeColor=none;fillColor=none;align=center;verticalAlign=middle;whiteSpace=wrap;rounded=0;" parent="Kzh3hM-JKv6-tXHrMC2i-1" vertex="1">
          <mxGeometry x="394" y="800" width="40" height="20" as="geometry" />
        </mxCell>
        <mxCell id="Yqaib7xicE3CKZIW9fZN-49" value="&lt;span&gt;a:=8&lt;/span&gt;" style="text;html=1;strokeColor=none;fillColor=none;align=center;verticalAlign=middle;whiteSpace=wrap;rounded=0;" parent="Kzh3hM-JKv6-tXHrMC2i-1" vertex="1">
          <mxGeometry x="394" y="860" width="40" height="20" as="geometry" />
        </mxCell>
        <mxCell id="Yqaib7xicE3CKZIW9fZN-50" value="&lt;span&gt;a:=9&lt;/span&gt;" style="text;html=1;strokeColor=none;fillColor=none;align=center;verticalAlign=middle;whiteSpace=wrap;rounded=0;" parent="Kzh3hM-JKv6-tXHrMC2i-1" vertex="1">
          <mxGeometry x="394" y="920" width="40" height="20" as="geometry" />
        </mxCell>
        <mxCell id="Yqaib7xicE3CKZIW9fZN-57" style="edgeStyle=orthogonalEdgeStyle;rounded=0;orthogonalLoop=1;jettySize=auto;html=1;entryX=0.5;entryY=0;entryDx=0;entryDy=0;" parent="Kzh3hM-JKv6-tXHrMC2i-1" source="Yqaib7xicE3CKZIW9fZN-55" target="TQeBkKrvsa03Zjg8h2H--0" edge="1">
          <mxGeometry relative="1" as="geometry" />
        </mxCell>
        <mxCell id="Yqaib7xicE3CKZIW9fZN-58" style="edgeStyle=orthogonalEdgeStyle;rounded=0;orthogonalLoop=1;jettySize=auto;html=1;" parent="Kzh3hM-JKv6-tXHrMC2i-1" source="Yqaib7xicE3CKZIW9fZN-55" edge="1">
          <mxGeometry relative="1" as="geometry">
            <mxPoint x="180" y="320" as="targetPoint" />
          </mxGeometry>
        </mxCell>
        <mxCell id="Yqaib7xicE3CKZIW9fZN-55" value="Введите число от 0 до 9:" style="rhombus;whiteSpace=wrap;html=1;" parent="Kzh3hM-JKv6-tXHrMC2i-1" vertex="1">
          <mxGeometry x="220" y="230" width="100" height="90" as="geometry" />
        </mxCell>
        <mxCell id="Yqaib7xicE3CKZIW9fZN-59" value="Вывод: Число за&lt;br&gt;пределами диапозона" style="shape=parallelogram;perimeter=parallelogramPerimeter;whiteSpace=wrap;html=1;fixedSize=1;" parent="Kzh3hM-JKv6-tXHrMC2i-1" vertex="1">
          <mxGeometry x="90" y="320" width="160" height="60" as="geometry" />
        </mxCell>
        <mxCell id="Yqaib7xicE3CKZIW9fZN-61" value="конец" style="ellipse;whiteSpace=wrap;html=1;" parent="Kzh3hM-JKv6-tXHrMC2i-1" vertex="1">
          <mxGeometry x="314" y="1120" width="120" height="80" as="geometry" />
        </mxCell>
        <mxCell id="FjaEfl8U48yOZBnugQRz-1" value="Да" style="text;html=1;strokeColor=none;fillColor=none;align=center;verticalAlign=middle;whiteSpace=wrap;rounded=0;" parent="Kzh3hM-JKv6-tXHrMC2i-1" vertex="1">
          <mxGeometry x="310" y="250" width="40" height="20" as="geometry" />
        </mxCell>
        <mxCell id="FjaEfl8U48yOZBnugQRz-2" value="Text" style="text;html=1;strokeColor=none;fillColor=none;align=center;verticalAlign=middle;whiteSpace=wrap;rounded=0;" parent="Kzh3hM-JKv6-tXHrMC2i-1" vertex="1">
          <mxGeometry x="180" y="250" width="40" height="20" as="geometry" />
        </mxCell>
      </root>
    </mxGraphModel>
  </diagram>
</mxfile>
